<svg xmlns="http://www.w3.org/2000/svg" version="1.1" viewBox="-5.0 -10.0 110.0 135.0">
 <path d="m58.68 69.793h-48.75c-4.2578 0-7.7188-3.4688-7.7188-7.7344l-0.003907-52.121c0-4.2656 3.4648-7.7344 7.7188-7.7344h75.41c4.2734 0 7.75 3.4688 7.75 7.7344v40.074c0 0.22656-0.10547 0.44531-0.28906 0.58203-0.17969 0.13672-0.41797 0.18359-0.63672 0.12891-0.25781-0.066406-0.52344-0.12891-0.78516-0.19141-1.0625-0.24609-2.1641-0.5-2.8555-1.1914-0.69531-0.69531-0.94531-1.7891-1.1875-2.8516-0.21875-0.95312-0.44531-1.9375-0.92969-2.2617-0.015625-0.007812-0.03125-0.015624-0.042969-0.023437-0.49219-0.28906-1.4766 0.007813-2.4258 0.30078-1.0508 0.32031-2.1367 0.65234-3.0977 0.39453-0.92969-0.25-1.6797-1.0586-2.4062-1.8438-0.69141-0.74219-1.4062-1.5156-2.0234-1.5156-0.62891 0-1.3477 0.77344-2.043 1.5195-0.72656 0.78125-1.4766 1.5898-2.3984 1.8359-0.96094 0.26172-2.0508-0.070312-3.0977-0.39062-0.94922-0.28906-1.9258-0.59375-2.4297-0.29688-0.51172 0.29297-0.74219 1.3008-0.96484 2.2734-0.24219 1.0625-0.49609 2.1602-1.1953 2.8594-0.6875 0.6875-1.7773 0.9375-2.832 1.1758-0.98437 0.22656-2 0.45703-2.3008 0.98047-0.28125 0.49219 0.019531 1.4688 0.30859 2.4102 0.32031 1.0508 0.65625 2.1328 0.39844 3.1016-0.25 0.92969-1.0625 1.6836-1.8516 2.4141-0.75 0.69531-1.5234 1.4141-1.5234 2.0312 0 0.48047 0.51953 1.0469 0.96875 1.4883 0.19531 0.19531 0.39453 0.37891 0.58984 0.5625 0.76562 0.71875 1.5586 1.4609 1.8086 2.3711 0.25 0.95312-0.066406 2.0117-0.37109 3.0391l-0.10156 0.34766c-0.078125 0.31641-0.36719 0.53125-0.69141 0.53125zm-48.75-66.117c-3.4453 0-6.25 2.8086-6.25 6.2656v52.117c0 3.4531 2.8047 6.2656 6.25 6.2656l48.199-0.003907c0.23047-0.77734 0.44141-1.5547 0.30859-2.0625-0.13672-0.5-0.77734-1.0977-1.3945-1.6758-0.21094-0.19531-0.42188-0.39453-0.62109-0.59375-0.69141-0.67578-1.4062-1.5117-1.4062-2.5352 0-1.2578 1.0117-2.1992 1.9922-3.1094 0.63281-0.58984 1.293-1.1992 1.4297-1.7148 0.14844-0.55859-0.12109-1.4375-0.38281-2.2891-0.38281-1.2422-0.77734-2.5273-0.17578-3.5742 0.625-1.0781 1.957-1.3828 3.2461-1.6797 0.85156-0.19531 1.7305-0.39453 2.1211-0.78516 0.39844-0.39844 0.60156-1.2891 0.80078-2.1484 0.29297-1.2812 0.59766-2.6055 1.6602-3.2188 1.0547-0.60938 2.3438-0.21875 3.5938 0.16797 0.85156 0.25781 1.7266 0.53125 2.2891 0.37891 0.51562-0.13672 1.1172-0.78906 1.7031-1.418 0.86719-0.93359 1.8516-1.9883 3.1211-1.9883 1.2578 0 2.2383 1.0547 3.0977 1.9844 0.58594 0.62891 1.1914 1.2852 1.7109 1.4219 0.55859 0.14062 1.4375-0.12109 2.2891-0.37891 1.2383-0.37891 2.5156-0.77344 3.5703-0.17969 0.023438 0.011719 0.046875 0.023437 0.070313 0.039063 1.0312 0.62891 1.332 1.9375 1.6211 3.207 0.19531 0.85547 0.40234 1.7461 0.79297 2.1367 0.37891 0.37891 1.2188 0.58203 2.0547 0.77734v-39.145c0-3.4531-2.8164-6.2656-6.2812-6.2656z"/>
 <path d="m56.941 64.203h-39.82c-0.40625 0-0.73438-0.32812-0.73438-0.73438 0-4.3281-3.5234-7.8516-7.8516-7.8516-0.40625 0-0.73438-0.32813-0.73438-0.73438l-0.003906-37.766c0-0.40625 0.32812-0.73438 0.73438-0.73438 4.3281 0 7.8516-3.5234 7.8516-7.8516 0-0.40625 0.32813-0.73438 0.73438-0.73438h61.043c0.40625 0 0.73438 0.32812 0.73438 0.73438 0 4.3281 3.5312 7.8516 7.8672 7.8516 0.40625 0 0.73438 0.32813 0.73438 0.73438v26.469c0 0.51953-0.59766 0.89062-1.0703 0.65625-0.023437-0.011719-0.046875-0.023438-0.066406-0.035157-0.49219-0.28906-1.4766 0.007813-2.4258 0.30078-1.0508 0.32031-2.1367 0.65234-3.0977 0.39453-0.92969-0.25-1.6797-1.0586-2.4062-1.8438-0.69141-0.74219-1.4062-1.5156-2.0234-1.5156-0.62891 0-1.3477 0.77344-2.043 1.5195-0.72656 0.78125-1.4766 1.5898-2.3984 1.8359-0.96094 0.26172-2.0508-0.070313-3.0977-0.39063-0.94922-0.28906-1.9258-0.59375-2.4297-0.29687-0.51172 0.29297-0.74219 1.3008-0.96484 2.2734-0.24219 1.0625-0.49609 2.1602-1.1953 2.8594-0.6875 0.6875-1.7773 0.9375-2.832 1.1758-0.98437 0.22656-2 0.45703-2.3008 0.98047-0.28125 0.49219 0.019531 1.4688 0.30859 2.4102 0.32031 1.0508 0.65625 2.1328 0.39844 3.1016-0.25 0.92969-1.0625 1.6836-1.8516 2.4141-0.75 0.69531-1.5234 1.4141-1.5234 2.0312 0 0.48047 0.51953 1.0469 0.96875 1.4883 0.21484 0.20703 0.28125 0.52734 0.16797 0.80469-0.10156 0.27344-0.37109 0.45312-0.67188 0.45312zm-39.117-1.4688h37.566c-0.22656-0.39062-0.375-0.81641-0.375-1.2812 0-1.2578 1.0117-2.1992 1.9922-3.1094 0.63281-0.58984 1.293-1.1992 1.4297-1.7148 0.14844-0.55859-0.12109-1.4375-0.38281-2.2891-0.38281-1.2422-0.77734-2.5273-0.17578-3.5742 0.625-1.0781 1.957-1.3828 3.2461-1.6797 0.85156-0.19531 1.7305-0.39453 2.1211-0.78516 0.39844-0.39844 0.60156-1.2891 0.80078-2.1484 0.29297-1.2812 0.59766-2.6055 1.6602-3.2188 1.0547-0.60938 2.3438-0.21875 3.5938 0.16797 0.85156 0.25781 1.7266 0.53125 2.2891 0.37891 0.51562-0.13672 1.1172-0.78906 1.7031-1.418 0.86719-0.93359 1.8516-1.9883 3.1211-1.9883 1.2578 0 2.2383 1.0547 3.0977 1.9844 0.58594 0.62891 1.1914 1.2852 1.7109 1.4219 0.55859 0.14062 1.4375-0.12109 2.2891-0.37891 0.85156-0.25781 1.7266-0.53125 2.5234-0.47656l-0.003906-24.805c-4.5625-0.35547-8.2188-4.0039-8.5742-8.5586h-59.633c-0.35938 4.5547-4.0039 8.2031-8.5586 8.5586v36.352c4.5547 0.35938 8.2031 4.0078 8.5586 8.5625z"/>
 <path d="m64.324 20.551h-33.363c-2.0938 0-3.793-1.7031-3.793-3.793 0-0.99219 0.40234-1.9648 1.1094-2.6719 0.71875-0.71484 1.6719-1.1094 2.6875-1.1094h33.363c2.0859 0 3.7812 1.6953 3.7812 3.7812 0 1.0156-0.39453 1.9688-1.1094 2.6836-0.71094 0.70312-1.6836 1.1094-2.6758 1.1094zm-33.363-6.1055c-0.62109 0-1.207 0.24219-1.6445 0.67969-0.42969 0.42969-0.67969 1.0234-0.67969 1.6289 0 1.2812 1.043 2.3242 2.3242 2.3242h33.363c0.60547 0 1.1992-0.24609 1.6289-0.67969 0.4375-0.4375 0.67969-1.0234 0.67969-1.6445 0-1.2734-1.0352-2.3125-2.3125-2.3125z"/>
 <path d="m79.668 28.234h-8.3242c-0.40625 0-0.73438-0.32812-0.73438-0.73438s0.32812-0.73438 0.73438-0.73438h8.3242c0.40625 0 0.73438 0.32812 0.73438 0.73438 0.003906 0.40234-0.32812 0.73438-0.73438 0.73438z"/>
 <path d="m65.875 28.234h-39.457c-0.40625 0-0.73438-0.32812-0.73438-0.73438s0.32812-0.73438 0.73438-0.73438h39.457c0.40625 0 0.73438 0.32812 0.73438 0.73438 0 0.40234-0.32812 0.73438-0.73438 0.73438z"/>
 <path d="m21.75 28.234h-6.1523c-0.40625 0-0.73438-0.32812-0.73438-0.73438s0.32812-0.73438 0.73438-0.73438h6.1523c0.40625 0 0.73438 0.32812 0.73438 0.73438 0 0.40234-0.32812 0.73438-0.73438 0.73438z"/>
 <path d="m79.668 35.918h-4.7148c-0.40625 0-0.73438-0.32812-0.73438-0.73438s0.32812-0.73438 0.73438-0.73438h4.7148c0.40625 0 0.73438 0.32812 0.73438 0.73438 0.003906 0.40625-0.32812 0.73438-0.73438 0.73438z"/>
 <path d="m72.043 35.918h-32.832c-0.40625 0-0.73438-0.32812-0.73438-0.73438s0.32813-0.73438 0.73438-0.73438h32.832c0.40625 0 0.73438 0.32812 0.73438 0.73438s-0.32812 0.73438-0.73438 0.73438z"/>
 <path d="m34.789 35.918h-19.188c-0.40625 0-0.73437-0.32812-0.73437-0.73438s0.32812-0.73438 0.73437-0.73438h19.188c0.40625 0 0.73438 0.32812 0.73438 0.73438s-0.32813 0.73438-0.73438 0.73438z"/>
 <path d="m37.234 43.602h-21.633c-0.40625 0-0.73437-0.32812-0.73437-0.73437s0.32812-0.73438 0.73437-0.73438h21.633c0.40625 0 0.73438 0.32813 0.73438 0.73438s-0.32812 0.73437-0.73438 0.73437z"/>
 <path d="m27.902 54.078h-12.301c-0.40625 0-0.73437-0.32812-0.73437-0.73438s0.32812-0.73438 0.73437-0.73438h12.301c0.40625 0 0.73438 0.32812 0.73438 0.73438s-0.32812 0.73438-0.73438 0.73438z"/>
 <path d="m69.496 97.797c-0.40625 0-0.81641-0.10547-1.1953-0.32031-0.76953-0.43359-1.2266-1.2188-1.2266-2.0938v-15.93c0-0.34766 0.24219-0.64844 0.58203-0.71875 0.38672-0.082031 0.79297-0.20703 1.1992-0.33203 1.0586-0.32031 2.1445-0.65234 3.1133-0.39453 0.92578 0.25 1.6758 1.0586 2.4023 1.8398 0.69531 0.74609 1.4141 1.5195 2.043 1.5195 0.61719 0 1.332-0.76953 2.0234-1.5156 0.72656-0.78516 1.4766-1.5938 2.4023-1.8438 0.96484-0.26562 2.0586 0.074219 3.1133 0.39453 0.40625 0.125 0.8125 0.25 1.1992 0.33203 0.33984 0.070313 0.58203 0.37109 0.58203 0.71875l0.003906 15.93c0 0.875-0.45703 1.6602-1.2188 2.0938-0.76172 0.43359-1.668 0.42969-2.4219-0.019531l-5.207-3.0859c-0.29297-0.16797-0.66797-0.17188-0.95312 0l-5.2266 3.0898c-0.375 0.22266-0.79297 0.33594-1.2148 0.33594zm6.9102-5.0312c0.42188 0 0.84766 0.11328 1.2305 0.33594l5.2109 3.0898c0.42578 0.25 0.80078 0.085938 0.94531 0.007813 0.29688-0.16797 0.47656-0.47656 0.47656-0.81641l-0.003906-15.352c-0.24219-0.066406-0.49219-0.14062-0.74219-0.21875-0.85547-0.26172-1.7461-0.53125-2.3047-0.37891-0.51562 0.13672-1.1211 0.79297-1.707 1.4219-0.86328 0.92969-1.8398 1.9844-3.0977 1.9844-1.2695 0-2.25-1.0586-3.1211-1.9883-0.58594-0.62891-1.1875-1.2812-1.7031-1.418-0.55469-0.14844-1.4453 0.12109-2.3047 0.38281-0.25 0.074219-0.49609 0.15234-0.74219 0.21875l0.003906 15.348c0 0.33984 0.17969 0.64453 0.48047 0.81641 0.29688 0.16797 0.64844 0.16797 0.93359-0.003907l5.2266-3.0898c0.37109-0.23047 0.79297-0.33984 1.2188-0.33984z"/>
 <path d="m76.406 82.836c-1.2617 0-2.2422-1.0547-3.1055-1.9844-0.58594-0.63281-1.1953-1.2852-1.7109-1.4219-0.55469-0.15234-1.4375 0.12109-2.2891 0.37891-1.25 0.37891-2.543 0.77734-3.5898 0.16797-1.0664-0.61719-1.3711-1.9453-1.6641-3.2266-0.19531-0.85547-0.39844-1.7422-0.79297-2.1367-0.39453-0.39453-1.2812-0.59766-2.1367-0.79297-1.2852-0.29297-2.6133-0.59766-3.2305-1.668-0.60938-1.0508-0.21484-2.3398 0.16797-3.5898 0.26172-0.85156 0.52734-1.7305 0.37891-2.2891-0.13672-0.51563-0.79297-1.125-1.4219-1.7109-0.92969-0.86328-1.9844-1.8438-1.9844-3.1055s1.0547-2.2422 1.9844-3.1055c0.63281-0.58594 1.2852-1.1953 1.4219-1.7109 0.14844-0.55859-0.12109-1.4375-0.37891-2.2891-0.37891-1.25-0.77344-2.5391-0.16797-3.5898 0.61719-1.0703 1.9453-1.3711 3.2305-1.6641 0.85547-0.19531 1.7422-0.39844 2.1367-0.79297 0.39453-0.39453 0.59766-1.2812 0.79297-2.1367 0.29297-1.2852 0.59766-2.6133 1.6641-3.2305 1.0508-0.60938 2.3438-0.21094 3.5898 0.16797 0.85156 0.26172 1.7344 0.53125 2.2891 0.37891 0.51562-0.13672 1.125-0.79297 1.7109-1.4219 0.86328-0.92969 1.8438-1.9844 3.1055-1.9844s2.2422 1.0547 3.1055 1.9844c0.58594 0.63281 1.1953 1.2852 1.7109 1.4219 0.55469 0.15234 1.4336-0.12109 2.2852-0.37891 1.2461-0.37891 2.5391-0.78125 3.5898-0.16797 1.0703 0.61719 1.3711 1.9453 1.668 3.2305 0.19531 0.85547 0.39844 1.7422 0.79297 2.1367 0.39453 0.39453 1.2812 0.59766 2.1367 0.79297 1.2852 0.29297 2.6094 0.59766 3.2266 1.6641 0.60938 1.0508 0.21484 2.3438-0.16797 3.5898-0.26172 0.85156-0.53125 1.7305-0.37891 2.2891 0.13672 0.51562 0.79297 1.125 1.4219 1.7109 0.92969 0.86328 1.9844 1.8438 1.9844 3.1055s-1.0547 2.2422-1.9844 3.1055c-0.63281 0.58594-1.2852 1.1953-1.4219 1.7109-0.14844 0.55469 0.12109 1.4375 0.37891 2.2852 0.38281 1.25 0.77734 2.5391 0.16797 3.5898-0.61719 1.0664-1.9453 1.3711-3.2266 1.6641-0.85547 0.19531-1.7422 0.39844-2.1367 0.79297-0.39453 0.39453-0.59766 1.2812-0.79297 2.1367-0.29297 1.2852-0.59766 2.6094-1.6641 3.2266-1.0508 0.60938-2.3438 0.21484-3.5898-0.16797-0.85156-0.26172-1.7305-0.52734-2.2891-0.37891-0.51562 0.13672-1.125 0.79297-1.7109 1.4219-0.86328 0.9375-1.8398 1.9922-3.1055 1.9922zm-5.1797-4.9219c0.25391 0 0.50391 0.027344 0.74609 0.09375 0.92969 0.25 1.6797 1.0586 2.4102 1.8438 0.69141 0.74609 1.4102 1.5156 2.0273 1.5156 0.62109 0 1.3359-0.76953 2.0273-1.5156 0.72656-0.78516 1.4805-1.5938 2.4102-1.8438 0.96094-0.25781 2.0469 0.074219 3.0977 0.39453 0.94922 0.28906 1.9297 0.58984 2.4258 0.30078 0.51172-0.29688 0.74609-1.3086 0.96875-2.2852 0.24219-1.0586 0.49219-2.1562 1.1875-2.8477 0.69531-0.69531 1.7891-0.94531 2.8477-1.1875 0.97656-0.22266 1.9883-0.45703 2.2852-0.96875 0.28906-0.49609-0.011718-1.4766-0.30078-2.4258-0.32031-1.0469-0.65234-2.1328-0.39453-3.0977 0.25-0.92969 1.0586-1.6797 1.8438-2.4102 0.74609-0.69141 1.5156-1.4102 1.5156-2.0273 0-0.62109-0.76953-1.3359-1.5156-2.0273-0.78516-0.72656-1.5938-1.4805-1.8438-2.4102-0.25781-0.96484 0.074218-2.0508 0.39453-3.0977 0.28906-0.94922 0.58984-1.9258 0.30078-2.4258-0.29688-0.51172-1.3086-0.74219-2.2852-0.96875-1.0586-0.24219-2.1523-0.49219-2.8477-1.1875-0.69531-0.69531-0.94531-1.7891-1.1875-2.8477-0.22266-0.97656-0.45703-1.9883-0.96875-2.2852-0.5-0.28516-1.4766 0.011719-2.4258 0.30078-1.0469 0.32031-2.1328 0.65625-3.0977 0.39453-0.92969-0.25-1.6797-1.0586-2.4102-1.8438-0.69141-0.74609-1.4102-1.5156-2.0273-1.5156-0.62109 0-1.3359 0.76953-2.0273 1.5156-0.72656 0.78516-1.4805 1.5938-2.4062 1.8438-0.96875 0.25781-2.0508-0.074219-3.0977-0.39453-0.94922-0.28906-1.9297-0.58594-2.4258-0.30078-0.51172 0.29688-0.74219 1.3086-0.96875 2.2852-0.24219 1.0586-0.49219 2.1562-1.1875 2.8477-0.69531 0.69531-1.7891 0.94531-2.8477 1.1875-0.97656 0.22266-1.9883 0.45703-2.2852 0.96875-0.28906 0.5 0.011719 1.4766 0.30078 2.4258 0.32031 1.0469 0.65234 2.1328 0.39453 3.0977-0.25 0.92969-1.0586 1.6797-1.8438 2.4102-0.74609 0.69141-1.5156 1.4102-1.5156 2.0273 0 0.62109 0.76953 1.3359 1.5156 2.0273 0.78516 0.72656 1.5938 1.4805 1.8438 2.4102 0.25781 0.96484-0.074219 2.0469-0.39453 3.0977-0.28906 0.94922-0.58984 1.9258-0.30078 2.4258 0.29688 0.51172 1.3086 0.74609 2.2852 0.96875 1.0586 0.24219 2.1523 0.49219 2.8477 1.1875 0.69531 0.69531 0.94531 1.7891 1.1875 2.8477 0.22266 0.97656 0.45703 1.9883 0.96875 2.2852 0.49609 0.28906 1.4766-0.011719 2.4258-0.30078 0.78125-0.24219 1.5859-0.48828 2.3477-0.48828z"/>
 <path d="m76.406 73.891c-6.8594 0-12.441-5.582-12.441-12.441s5.582-12.438 12.441-12.438 12.438 5.5781 12.438 12.438c0.003906 6.8633-5.5781 12.441-12.438 12.441zm0-23.406c-6.0508 0-10.969 4.9219-10.969 10.969 0 6.0508 4.9219 10.969 10.969 10.969s10.969-4.9219 10.969-10.969c0-6.0508-4.918-10.969-10.969-10.969z"/>
 <path d="m79.207 67.273c-0.24219 0-0.48438-0.058594-0.71094-0.17969l-2.0703-1.0898-2.1094 1.0898c-0.51953 0.26953-1.1328 0.22656-1.6055-0.11328-0.46875-0.33984-0.70313-0.90625-0.60938-1.4805l0.39453-2.3008-1.6797-1.6758c-0.41797-0.40625-0.56641-1.0039-0.38672-1.5586 0.17969-0.55469 0.65234-0.94922 1.2305-1.0312l2.3047-0.33984 1.0742-2.1211c0.51953-1.043 2.2031-1.0391 2.7227-0.003906l1.0391 2.1055 2.3477 0.35938c0.56641 0.082031 1.0352 0.47266 1.2188 1.0156 0.18359 0.55469 0.042968 1.1562-0.37109 1.5664l-1.6836 1.6289c-0.007812 0.011719-0.019531 0.023438-0.011719 0.0625l0.39062 2.2852c0.10156 0.56641-0.125 1.1406-0.59766 1.4844-0.26172 0.19922-0.57031 0.29688-0.88672 0.29688zm-2.793-2.7383c0.24219 0 0.48438 0.058594 0.69922 0.17188l2.0742 1.0898-0.33203-2.3477c-0.078125-0.50781 0.078125-0.99219 0.42969-1.3398l0.007813-0.007813 1.6797-1.6289-2.3398-0.42578c-0.50781-0.074219-0.9375-0.38672-1.1484-0.83203l-1.0312-2.0898-1.125 2.1016c-0.23438 0.44531-0.65625 0.74609-1.1367 0.82031l-2.3164 0.34375 1.6406 1.7148c0.375 0.375 0.52734 0.86719 0.42969 1.3633l-0.39062 2.2773 2.1367-1.0391c0.23438-0.11719 0.48047-0.17188 0.72266-0.17188z"/>
<text x="0.0" y="117.5" font-size="5.0" font-weight="bold" font-family="Arbeit Regular, Helvetica, Arial-Unicode, Arial, Sans-serif" fill="#000000">Created by VectorsLab</text><text x="0.0" y="122.5" font-size="5.0" font-weight="bold" font-family="Arbeit Regular, Helvetica, Arial-Unicode, Arial, Sans-serif" fill="#000000">from Noun Project</text></svg>